<mxfile host="Electron" modified="2024-04-24T02:22:18.991Z" agent="Mozilla/5.0 (X11; Linux x86_64) AppleWebKit/537.36 (KHTML, like Gecko) draw.io/24.2.5 Chrome/120.0.6099.109 Electron/28.1.0 Safari/537.36" etag="zOwF_0StCn7VYCUHV-4R" version="24.2.5" type="device">
  <diagram name="Page-1" id="rK8QbiMNKRTFdTchuybe">
    <mxGraphModel dx="2396" dy="1799" grid="1" gridSize="10" guides="1" tooltips="1" connect="1" arrows="1" fold="1" page="0" pageScale="1" pageWidth="3300" pageHeight="4681" math="0" shadow="0">
      <root>
        <mxCell id="0" />
        <mxCell id="1" parent="0" />
        <mxCell id="H6aLL0KiJfkArdERg_eH-175" value="" style="rounded=1;whiteSpace=wrap;html=1;hachureGap=4;fillColor=#f5f5f5;fontColor=#333333;strokeColor=#666666;fontFamily=Courier New;fillStyle=dashed;" parent="1" vertex="1">
          <mxGeometry x="120" y="-10" width="1970" height="610" as="geometry" />
        </mxCell>
        <mxCell id="H6aLL0KiJfkArdERg_eH-71" value="" style="rounded=1;whiteSpace=wrap;html=1;hachureGap=4;arcSize=12;fillColor=#f9f7ed;strokeColor=#36393d;dashed=1;fontFamily=Courier New;fillStyle=dashed;" parent="1" vertex="1">
          <mxGeometry x="950" y="230" width="350" height="300" as="geometry" />
        </mxCell>
        <mxCell id="H6aLL0KiJfkArdERg_eH-23" value="" style="rounded=1;whiteSpace=wrap;html=1;hachureGap=4;arcSize=12;fillColor=#f9f7ed;strokeColor=#36393d;dashed=1;fontFamily=Courier New;fillStyle=dashed;" parent="1" vertex="1">
          <mxGeometry x="610" y="240" width="180" height="240" as="geometry" />
        </mxCell>
        <mxCell id="H6aLL0KiJfkArdERg_eH-6" value="" style="rounded=1;whiteSpace=wrap;html=1;hachureGap=4;arcSize=12;fillColor=#f9f7ed;strokeColor=#36393d;dashed=1;fontFamily=Courier New;fillStyle=dashed;" parent="1" vertex="1">
          <mxGeometry x="150" y="250" width="340" height="290" as="geometry" />
        </mxCell>
        <mxCell id="H6aLL0KiJfkArdERg_eH-32" style="edgeStyle=orthogonalEdgeStyle;rounded=0;hachureGap=4;orthogonalLoop=1;jettySize=auto;html=1;exitX=1;exitY=0.5;exitDx=0;exitDy=0;entryX=0;entryY=0.5;entryDx=0;entryDy=0;fontFamily=Courier New;" parent="1" source="H6aLL0KiJfkArdERg_eH-1" target="H6aLL0KiJfkArdERg_eH-30" edge="1">
          <mxGeometry relative="1" as="geometry" />
        </mxCell>
        <mxCell id="H6aLL0KiJfkArdERg_eH-33" style="edgeStyle=orthogonalEdgeStyle;rounded=0;hachureGap=4;orthogonalLoop=1;jettySize=auto;html=1;exitX=1;exitY=0.5;exitDx=0;exitDy=0;entryX=0;entryY=0.5;entryDx=0;entryDy=0;fontFamily=Courier New;" parent="1" source="H6aLL0KiJfkArdERg_eH-1" target="H6aLL0KiJfkArdERg_eH-2" edge="1">
          <mxGeometry relative="1" as="geometry">
            <Array as="points">
              <mxPoint x="460" y="425" />
              <mxPoint x="460" y="480" />
              <mxPoint x="190" y="480" />
              <mxPoint x="190" y="360" />
            </Array>
          </mxGeometry>
        </mxCell>
        <mxCell id="21z7svGkfn5s8OX5ykdy-4" style="edgeStyle=orthogonalEdgeStyle;rounded=0;hachureGap=4;orthogonalLoop=1;jettySize=auto;html=1;exitX=1;exitY=0.5;exitDx=0;exitDy=0;entryX=0;entryY=0.5;entryDx=0;entryDy=0;fontFamily=Courier New;" parent="1" source="H6aLL0KiJfkArdERg_eH-1" target="H6aLL0KiJfkArdERg_eH-5" edge="1">
          <mxGeometry relative="1" as="geometry">
            <Array as="points">
              <mxPoint x="460" y="425" />
              <mxPoint x="460" y="480" />
              <mxPoint x="190" y="480" />
              <mxPoint x="190" y="310" />
            </Array>
          </mxGeometry>
        </mxCell>
        <mxCell id="H6aLL0KiJfkArdERg_eH-1" value="PC Gen" style="rounded=0;whiteSpace=wrap;html=1;hachureGap=4;fillColor=#b1ddf0;strokeColor=#10739e;fontFamily=Courier New;" parent="1" vertex="1">
          <mxGeometry x="290" y="385" width="150" height="80" as="geometry" />
        </mxCell>
        <mxCell id="H6aLL0KiJfkArdERg_eH-19" style="edgeStyle=orthogonalEdgeStyle;rounded=0;hachureGap=4;orthogonalLoop=1;jettySize=auto;html=1;exitX=1;exitY=0.5;exitDx=0;exitDy=0;entryX=0;entryY=0.5;entryDx=0;entryDy=0;fontFamily=Courier New;" parent="1" source="H6aLL0KiJfkArdERg_eH-5" target="H6aLL0KiJfkArdERg_eH-14" edge="1">
          <mxGeometry relative="1" as="geometry" />
        </mxCell>
        <mxCell id="H6aLL0KiJfkArdERg_eH-177" style="edgeStyle=orthogonalEdgeStyle;rounded=0;hachureGap=4;orthogonalLoop=1;jettySize=auto;html=1;exitX=0.5;exitY=0;exitDx=0;exitDy=0;entryX=0.25;entryY=1;entryDx=0;entryDy=0;startArrow=classic;startFill=1;fontFamily=Courier New;" parent="1" source="H6aLL0KiJfkArdERg_eH-5" target="H6aLL0KiJfkArdERg_eH-176" edge="1">
          <mxGeometry relative="1" as="geometry">
            <Array as="points">
              <mxPoint x="330" y="200" />
              <mxPoint x="625" y="200" />
            </Array>
          </mxGeometry>
        </mxCell>
        <mxCell id="H6aLL0KiJfkArdERg_eH-5" value="I$" style="rounded=0;whiteSpace=wrap;html=1;hachureGap=4;fontFamily=Courier New;fillColor=#b1ddf0;strokeColor=#10739e;" parent="1" vertex="1">
          <mxGeometry x="290" y="280" width="80" height="60" as="geometry" />
        </mxCell>
        <mxCell id="H6aLL0KiJfkArdERg_eH-7" value="" style="group;fontFamily=Courier New;" parent="1" vertex="1" connectable="0">
          <mxGeometry x="210" y="320" width="40" height="80" as="geometry" />
        </mxCell>
        <mxCell id="H6aLL0KiJfkArdERg_eH-2" value="PC" style="rounded=0;whiteSpace=wrap;html=1;hachureGap=4;fontFamily=Courier New;fillColor=#f8cecc;strokeColor=#b85450;" parent="H6aLL0KiJfkArdERg_eH-7" vertex="1">
          <mxGeometry width="40" height="80" as="geometry" />
        </mxCell>
        <mxCell id="H6aLL0KiJfkArdERg_eH-3" value="" style="triangle;whiteSpace=wrap;html=1;hachureGap=4;rotation=-90;fillColor=#f8cecc;strokeColor=#b85450;fontFamily=Courier New;" parent="H6aLL0KiJfkArdERg_eH-7" vertex="1">
          <mxGeometry x="7.5" y="47.5" width="25" height="40" as="geometry" />
        </mxCell>
        <mxCell id="H6aLL0KiJfkArdERg_eH-12" value="Ifu" style="text;html=1;align=center;verticalAlign=middle;whiteSpace=wrap;rounded=0;fontFamily=Courier New;" parent="1" vertex="1">
          <mxGeometry x="160" y="260" width="40" height="20" as="geometry" />
        </mxCell>
        <mxCell id="H6aLL0KiJfkArdERg_eH-14" value="" style="whiteSpace=wrap;html=1;aspect=fixed;hachureGap=4;fillColor=#ffe6cc;strokeColor=#d79b00;fillStyle=cross-hatch;fontFamily=Courier New;" parent="1" vertex="1">
          <mxGeometry x="480" y="300" width="20" height="20" as="geometry" />
        </mxCell>
        <mxCell id="H6aLL0KiJfkArdERg_eH-15" value="" style="whiteSpace=wrap;html=1;aspect=fixed;hachureGap=4;fillColor=#ffe6cc;strokeColor=#d79b00;fillStyle=cross-hatch;fontFamily=Courier New;" parent="1" vertex="1">
          <mxGeometry x="480" y="350" width="20" height="20" as="geometry" />
        </mxCell>
        <mxCell id="H6aLL0KiJfkArdERg_eH-16" value="Inst" style="text;html=1;align=center;verticalAlign=middle;whiteSpace=wrap;rounded=0;fontFamily=Courier New;" parent="1" vertex="1">
          <mxGeometry x="490" y="280" width="30" height="20" as="geometry" />
        </mxCell>
        <mxCell id="H6aLL0KiJfkArdERg_eH-17" value="PC" style="text;html=1;align=center;verticalAlign=middle;whiteSpace=wrap;rounded=0;fontFamily=Courier New;" parent="1" vertex="1">
          <mxGeometry x="490" y="330" width="30" height="20" as="geometry" />
        </mxCell>
        <mxCell id="H6aLL0KiJfkArdERg_eH-20" value="Reg" style="ellipse;whiteSpace=wrap;html=1;hachureGap=4;fillColor=#e1d5e7;strokeColor=#9673a6;fontFamily=Courier New;fillStyle=zigzag-line;" parent="1" vertex="1">
          <mxGeometry x="530" y="250" width="40" height="230" as="geometry" />
        </mxCell>
        <mxCell id="H6aLL0KiJfkArdERg_eH-49" style="edgeStyle=orthogonalEdgeStyle;rounded=0;hachureGap=4;orthogonalLoop=1;jettySize=auto;html=1;exitX=0.5;exitY=1;exitDx=0;exitDy=0;entryX=0.5;entryY=0;entryDx=0;entryDy=0;fontFamily=Courier New;" parent="1" source="H6aLL0KiJfkArdERg_eH-21" target="H6aLL0KiJfkArdERg_eH-22" edge="1">
          <mxGeometry relative="1" as="geometry" />
        </mxCell>
        <mxCell id="H6aLL0KiJfkArdERg_eH-62" style="edgeStyle=orthogonalEdgeStyle;rounded=0;hachureGap=4;orthogonalLoop=1;jettySize=auto;html=1;exitX=1;exitY=0.5;exitDx=0;exitDy=0;entryX=0;entryY=0.5;entryDx=0;entryDy=0;fontFamily=Courier New;" parent="1" source="H6aLL0KiJfkArdERg_eH-21" target="H6aLL0KiJfkArdERg_eH-50" edge="1">
          <mxGeometry relative="1" as="geometry" />
        </mxCell>
        <mxCell id="H6aLL0KiJfkArdERg_eH-21" value="Decoder" style="rounded=0;whiteSpace=wrap;html=1;hachureGap=4;fontFamily=Courier New;fillColor=#dae8fc;strokeColor=#6c8ebf;" parent="1" vertex="1">
          <mxGeometry x="660" y="260" width="80" height="60" as="geometry" />
        </mxCell>
        <mxCell id="H6aLL0KiJfkArdERg_eH-64" style="edgeStyle=orthogonalEdgeStyle;rounded=0;hachureGap=4;orthogonalLoop=1;jettySize=auto;html=1;exitX=1;exitY=0.5;exitDx=0;exitDy=0;entryX=0;entryY=0.5;entryDx=0;entryDy=0;fontFamily=Courier New;" parent="1" source="H6aLL0KiJfkArdERg_eH-22" target="H6aLL0KiJfkArdERg_eH-56" edge="1">
          <mxGeometry relative="1" as="geometry" />
        </mxCell>
        <mxCell id="H6aLL0KiJfkArdERg_eH-22" value="Imm Gen" style="rounded=0;whiteSpace=wrap;html=1;hachureGap=4;fontFamily=Courier New;fillColor=#dae8fc;strokeColor=#6c8ebf;" parent="1" vertex="1">
          <mxGeometry x="660" y="355" width="80" height="60" as="geometry" />
        </mxCell>
        <mxCell id="H6aLL0KiJfkArdERg_eH-26" value="snpc" style="rounded=0;whiteSpace=wrap;html=1;hachureGap=4;fontFamily=Courier New;fillColor=#d5e8d4;strokeColor=#82b366;" parent="1" vertex="1">
          <mxGeometry x="390" y="400" width="30" height="25" as="geometry" />
        </mxCell>
        <mxCell id="H6aLL0KiJfkArdERg_eH-28" value="" style="endArrow=classic;html=1;rounded=0;hachureGap=4;exitX=1;exitY=0.5;exitDx=0;exitDy=0;entryX=0;entryY=0.5;entryDx=0;entryDy=0;fontFamily=Courier New;" parent="1" source="H6aLL0KiJfkArdERg_eH-2" target="H6aLL0KiJfkArdERg_eH-1" edge="1">
          <mxGeometry width="50" height="50" relative="1" as="geometry">
            <mxPoint x="230" y="430" as="sourcePoint" />
            <mxPoint x="280" y="380" as="targetPoint" />
            <Array as="points">
              <mxPoint x="270" y="360" />
              <mxPoint x="270" y="425" />
            </Array>
          </mxGeometry>
        </mxCell>
        <mxCell id="H6aLL0KiJfkArdERg_eH-29" value="" style="endArrow=classic;html=1;rounded=0;hachureGap=4;exitX=1;exitY=0.5;exitDx=0;exitDy=0;entryX=0.5;entryY=0;entryDx=0;entryDy=0;fontFamily=Courier New;" parent="1" source="H6aLL0KiJfkArdERg_eH-5" target="H6aLL0KiJfkArdERg_eH-26" edge="1">
          <mxGeometry width="50" height="50" relative="1" as="geometry">
            <mxPoint x="380" y="380" as="sourcePoint" />
            <mxPoint x="430" y="330" as="targetPoint" />
            <Array as="points">
              <mxPoint x="405" y="310" />
            </Array>
          </mxGeometry>
        </mxCell>
        <mxCell id="H6aLL0KiJfkArdERg_eH-30" value="" style="whiteSpace=wrap;html=1;aspect=fixed;hachureGap=4;fillColor=#ffe6cc;strokeColor=#d79b00;fillStyle=cross-hatch;fontFamily=Courier New;" parent="1" vertex="1">
          <mxGeometry x="480" y="415" width="20" height="20" as="geometry" />
        </mxCell>
        <mxCell id="H6aLL0KiJfkArdERg_eH-31" value="snpc" style="text;html=1;align=center;verticalAlign=middle;whiteSpace=wrap;rounded=0;fontFamily=Courier New;" parent="1" vertex="1">
          <mxGeometry x="490" y="395" width="30" height="20" as="geometry" />
        </mxCell>
        <mxCell id="H6aLL0KiJfkArdERg_eH-47" style="edgeStyle=orthogonalEdgeStyle;rounded=0;hachureGap=4;orthogonalLoop=1;jettySize=auto;html=1;exitX=1;exitY=0.5;exitDx=0;exitDy=0;entryX=0;entryY=0.5;entryDx=0;entryDy=0;fontFamily=Courier New;" parent="1" source="H6aLL0KiJfkArdERg_eH-38" target="H6aLL0KiJfkArdERg_eH-21" edge="1">
          <mxGeometry relative="1" as="geometry" />
        </mxCell>
        <mxCell id="H6aLL0KiJfkArdERg_eH-38" value="" style="whiteSpace=wrap;html=1;aspect=fixed;hachureGap=4;fillColor=#ffe6cc;strokeColor=#d79b00;fillStyle=cross-hatch;fontFamily=Courier New;" parent="1" vertex="1">
          <mxGeometry x="600" y="280" width="20" height="20" as="geometry" />
        </mxCell>
        <mxCell id="H6aLL0KiJfkArdERg_eH-39" value="Inst" style="text;html=1;align=center;verticalAlign=middle;whiteSpace=wrap;rounded=0;fontFamily=Courier New;" parent="1" vertex="1">
          <mxGeometry x="580" y="260" width="30" height="20" as="geometry" />
        </mxCell>
        <mxCell id="H6aLL0KiJfkArdERg_eH-46" value="Idu" style="text;html=1;align=center;verticalAlign=middle;whiteSpace=wrap;rounded=0;fontFamily=Courier New;" parent="1" vertex="1">
          <mxGeometry x="620" y="250" width="40" height="20" as="geometry" />
        </mxCell>
        <mxCell id="H6aLL0KiJfkArdERg_eH-48" value="" style="endArrow=classic;html=1;rounded=0;hachureGap=4;exitX=1;exitY=0.5;exitDx=0;exitDy=0;entryX=0;entryY=0.5;entryDx=0;entryDy=0;fontFamily=Courier New;" parent="1" source="H6aLL0KiJfkArdERg_eH-38" target="H6aLL0KiJfkArdERg_eH-22" edge="1">
          <mxGeometry width="50" height="50" relative="1" as="geometry">
            <mxPoint x="650" y="380" as="sourcePoint" />
            <mxPoint x="700" y="330" as="targetPoint" />
            <Array as="points">
              <mxPoint x="640" y="290" />
              <mxPoint x="640" y="385" />
            </Array>
          </mxGeometry>
        </mxCell>
        <mxCell id="H6aLL0KiJfkArdERg_eH-50" value="" style="whiteSpace=wrap;html=1;aspect=fixed;hachureGap=4;fillColor=#ffe6cc;strokeColor=#d79b00;fillStyle=cross-hatch;fontFamily=Courier New;" parent="1" vertex="1">
          <mxGeometry x="780" y="260" width="20" height="20" as="geometry" />
        </mxCell>
        <mxCell id="H6aLL0KiJfkArdERg_eH-51" value="rs1/rs2/rd" style="text;html=1;align=center;verticalAlign=middle;whiteSpace=wrap;rounded=0;fontFamily=Courier New;" parent="1" vertex="1">
          <mxGeometry x="790" y="240" width="70" height="20" as="geometry" />
        </mxCell>
        <mxCell id="H6aLL0KiJfkArdERg_eH-52" value="" style="whiteSpace=wrap;html=1;aspect=fixed;hachureGap=4;fillColor=#ffe6cc;strokeColor=#d79b00;fillStyle=cross-hatch;fontFamily=Courier New;" parent="1" vertex="1">
          <mxGeometry x="780" y="330" width="20" height="20" as="geometry" />
        </mxCell>
        <mxCell id="H6aLL0KiJfkArdERg_eH-53" value="ALU_OP&lt;br&gt;/BRA_OP&lt;br&gt;/LSU_OP" style="text;html=1;align=center;verticalAlign=middle;whiteSpace=wrap;rounded=0;fontFamily=Courier New;" parent="1" vertex="1">
          <mxGeometry x="790" y="280" width="60" height="50" as="geometry" />
        </mxCell>
        <mxCell id="H6aLL0KiJfkArdERg_eH-56" value="" style="whiteSpace=wrap;html=1;aspect=fixed;hachureGap=4;fillColor=#ffe6cc;strokeColor=#d79b00;fillStyle=cross-hatch;fontFamily=Courier New;" parent="1" vertex="1">
          <mxGeometry x="780" y="375" width="20" height="20" as="geometry" />
        </mxCell>
        <mxCell id="H6aLL0KiJfkArdERg_eH-57" value="Imm" style="text;html=1;align=center;verticalAlign=middle;whiteSpace=wrap;rounded=0;fontFamily=Courier New;" parent="1" vertex="1">
          <mxGeometry x="790" y="355" width="30" height="20" as="geometry" />
        </mxCell>
        <mxCell id="H6aLL0KiJfkArdERg_eH-63" value="" style="endArrow=classic;html=1;rounded=0;hachureGap=4;exitX=1;exitY=0.5;exitDx=0;exitDy=0;entryX=0;entryY=0.5;entryDx=0;entryDy=0;fontFamily=Courier New;" parent="1" source="H6aLL0KiJfkArdERg_eH-21" target="H6aLL0KiJfkArdERg_eH-52" edge="1">
          <mxGeometry width="50" height="50" relative="1" as="geometry">
            <mxPoint x="800" y="400" as="sourcePoint" />
            <mxPoint x="850" y="350" as="targetPoint" />
            <Array as="points">
              <mxPoint x="760" y="290" />
              <mxPoint x="760" y="340" />
            </Array>
          </mxGeometry>
        </mxCell>
        <mxCell id="H6aLL0KiJfkArdERg_eH-67" value="Reg" style="ellipse;whiteSpace=wrap;html=1;hachureGap=4;fillColor=#e1d5e7;strokeColor=#9673a6;fontFamily=Courier New;fillStyle=zigzag-line;" parent="1" vertex="1">
          <mxGeometry x="860" y="220" width="40" height="310" as="geometry" />
        </mxCell>
        <mxCell id="H6aLL0KiJfkArdERg_eH-97" style="edgeStyle=orthogonalEdgeStyle;rounded=0;hachureGap=4;orthogonalLoop=1;jettySize=auto;html=1;exitX=0.5;exitY=1;exitDx=0;exitDy=0;entryX=0.5;entryY=0;entryDx=0;entryDy=0;fontFamily=Courier New;" parent="1" source="H6aLL0KiJfkArdERg_eH-68" target="H6aLL0KiJfkArdERg_eH-79" edge="1">
          <mxGeometry relative="1" as="geometry">
            <Array as="points">
              <mxPoint x="1100" y="190" />
              <mxPoint x="1010" y="190" />
            </Array>
          </mxGeometry>
        </mxCell>
        <mxCell id="H6aLL0KiJfkArdERg_eH-68" value="GPRs" style="rounded=0;whiteSpace=wrap;html=1;hachureGap=4;fillColor=#d5e8d4;strokeColor=#82b366;fontFamily=Courier New;" parent="1" vertex="1">
          <mxGeometry x="1040" y="10" width="120" height="160" as="geometry" />
        </mxCell>
        <mxCell id="H6aLL0KiJfkArdERg_eH-70" value="Forward" style="rounded=0;whiteSpace=wrap;html=1;hachureGap=4;fillColor=#0050ef;strokeColor=#001DBC;fillStyle=dashed;fontColor=#000000;fontFamily=Courier New;" parent="1" vertex="1">
          <mxGeometry x="1060" y="140" width="80" height="20" as="geometry" />
        </mxCell>
        <mxCell id="H6aLL0KiJfkArdERg_eH-122" style="edgeStyle=orthogonalEdgeStyle;rounded=0;hachureGap=4;orthogonalLoop=1;jettySize=auto;html=1;exitX=1;exitY=0.5;exitDx=0;exitDy=0;entryX=0;entryY=0.5;entryDx=0;entryDy=0;fontFamily=Courier New;" parent="1" source="H6aLL0KiJfkArdERg_eH-72" target="H6aLL0KiJfkArdERg_eH-120" edge="1">
          <mxGeometry relative="1" as="geometry" />
        </mxCell>
        <mxCell id="H6aLL0KiJfkArdERg_eH-72" value="pre LSU" style="rounded=0;whiteSpace=wrap;html=1;hachureGap=4;fillColor=#dae8fc;strokeColor=#6c8ebf;fontFamily=Courier New;" parent="1" vertex="1">
          <mxGeometry x="1200" y="250" width="60" height="50" as="geometry" />
        </mxCell>
        <mxCell id="H6aLL0KiJfkArdERg_eH-99" style="edgeStyle=orthogonalEdgeStyle;rounded=0;hachureGap=4;orthogonalLoop=1;jettySize=auto;html=1;exitX=1;exitY=0.5;exitDx=0;exitDy=0;entryX=0.5;entryY=1;entryDx=0;entryDy=0;fontFamily=Courier New;" parent="1" source="H6aLL0KiJfkArdERg_eH-73" target="H6aLL0KiJfkArdERg_eH-72" edge="1">
          <mxGeometry relative="1" as="geometry" />
        </mxCell>
        <mxCell id="H6aLL0KiJfkArdERg_eH-116" style="edgeStyle=orthogonalEdgeStyle;rounded=0;hachureGap=4;orthogonalLoop=1;jettySize=auto;html=1;exitX=1;exitY=0.5;exitDx=0;exitDy=0;entryX=0.25;entryY=1;entryDx=0;entryDy=0;fontFamily=Courier New;" parent="1" source="H6aLL0KiJfkArdERg_eH-73" target="H6aLL0KiJfkArdERg_eH-115" edge="1">
          <mxGeometry relative="1" as="geometry">
            <Array as="points">
              <mxPoint x="1210" y="330" />
              <mxPoint x="1210" y="450" />
            </Array>
          </mxGeometry>
        </mxCell>
        <mxCell id="H6aLL0KiJfkArdERg_eH-118" style="edgeStyle=orthogonalEdgeStyle;rounded=0;hachureGap=4;orthogonalLoop=1;jettySize=auto;html=1;exitX=1;exitY=0.5;exitDx=0;exitDy=0;entryX=1;entryY=0.5;entryDx=0;entryDy=0;fontFamily=Courier New;" parent="1" source="H6aLL0KiJfkArdERg_eH-73" target="H6aLL0KiJfkArdERg_eH-74" edge="1">
          <mxGeometry relative="1" as="geometry">
            <Array as="points">
              <mxPoint x="1210" y="330" />
              <mxPoint x="1210" y="435" />
            </Array>
          </mxGeometry>
        </mxCell>
        <mxCell id="H6aLL0KiJfkArdERg_eH-73" value="ALU" style="rounded=0;whiteSpace=wrap;html=1;hachureGap=4;fillColor=#dae8fc;strokeColor=#6c8ebf;fontFamily=Courier New;" parent="1" vertex="1">
          <mxGeometry x="1120" y="305" width="60" height="50" as="geometry" />
        </mxCell>
        <mxCell id="H6aLL0KiJfkArdERg_eH-108" style="edgeStyle=orthogonalEdgeStyle;rounded=0;hachureGap=4;orthogonalLoop=1;jettySize=auto;html=1;exitX=0.5;exitY=1;exitDx=0;exitDy=0;entryX=0.5;entryY=0;entryDx=0;entryDy=0;fontFamily=Courier New;" parent="1" source="H6aLL0KiJfkArdERg_eH-74" target="H6aLL0KiJfkArdERg_eH-107" edge="1">
          <mxGeometry relative="1" as="geometry" />
        </mxCell>
        <mxCell id="H6aLL0KiJfkArdERg_eH-74" value="BU" style="rounded=0;whiteSpace=wrap;html=1;hachureGap=4;fillColor=#dae8fc;strokeColor=#6c8ebf;fontFamily=Courier New;" parent="1" vertex="1">
          <mxGeometry x="1030" y="410" width="60" height="50" as="geometry" />
        </mxCell>
        <mxCell id="H6aLL0KiJfkArdERg_eH-112" style="edgeStyle=orthogonalEdgeStyle;rounded=0;hachureGap=4;orthogonalLoop=1;jettySize=auto;html=1;exitX=1;exitY=0.5;exitDx=0;exitDy=0;entryX=0;entryY=0.25;entryDx=0;entryDy=0;fontFamily=Courier New;" parent="1" source="H6aLL0KiJfkArdERg_eH-75" target="H6aLL0KiJfkArdERg_eH-73" edge="1">
          <mxGeometry relative="1" as="geometry">
            <Array as="points">
              <mxPoint x="1100" y="300" />
              <mxPoint x="1100" y="317" />
            </Array>
          </mxGeometry>
        </mxCell>
        <mxCell id="H6aLL0KiJfkArdERg_eH-75" value="A sel" style="rounded=0;whiteSpace=wrap;html=1;hachureGap=4;fillColor=#f8cecc;strokeColor=#b85450;fontFamily=Courier New;" parent="1" vertex="1">
          <mxGeometry x="1030" y="270" width="60" height="60" as="geometry" />
        </mxCell>
        <mxCell id="H6aLL0KiJfkArdERg_eH-114" style="edgeStyle=orthogonalEdgeStyle;rounded=0;hachureGap=4;orthogonalLoop=1;jettySize=auto;html=1;exitX=1;exitY=0.5;exitDx=0;exitDy=0;entryX=0;entryY=0.75;entryDx=0;entryDy=0;fontFamily=Courier New;" parent="1" source="H6aLL0KiJfkArdERg_eH-76" target="H6aLL0KiJfkArdERg_eH-73" edge="1">
          <mxGeometry relative="1" as="geometry">
            <Array as="points">
              <mxPoint x="1100" y="367" />
              <mxPoint x="1100" y="343" />
            </Array>
          </mxGeometry>
        </mxCell>
        <mxCell id="H6aLL0KiJfkArdERg_eH-76" value="B sel" style="rounded=0;whiteSpace=wrap;html=1;hachureGap=4;fillColor=#f8cecc;strokeColor=#b85450;fontFamily=Courier New;" parent="1" vertex="1">
          <mxGeometry x="1030" y="337.5" width="60" height="60" as="geometry" />
        </mxCell>
        <mxCell id="H6aLL0KiJfkArdERg_eH-100" style="edgeStyle=orthogonalEdgeStyle;rounded=0;hachureGap=4;orthogonalLoop=1;jettySize=auto;html=1;exitX=0.5;exitY=1;exitDx=0;exitDy=0;entryX=0;entryY=0.25;entryDx=0;entryDy=0;fontFamily=Courier New;" parent="1" source="H6aLL0KiJfkArdERg_eH-79" target="H6aLL0KiJfkArdERg_eH-75" edge="1">
          <mxGeometry relative="1" as="geometry" />
        </mxCell>
        <mxCell id="H6aLL0KiJfkArdERg_eH-79" value="" style="whiteSpace=wrap;html=1;aspect=fixed;hachureGap=4;fillColor=#ffe6cc;strokeColor=#d79b00;fillStyle=cross-hatch;fontFamily=Courier New;" parent="1" vertex="1">
          <mxGeometry x="1000" y="220" width="20" height="20" as="geometry" />
        </mxCell>
        <mxCell id="H6aLL0KiJfkArdERg_eH-202" style="edgeStyle=orthogonalEdgeStyle;rounded=0;hachureGap=4;orthogonalLoop=1;jettySize=auto;html=1;exitX=1;exitY=0;exitDx=0;exitDy=0;entryX=0;entryY=0.5;entryDx=0;entryDy=0;fontFamily=Courier New;" parent="1" source="H6aLL0KiJfkArdERg_eH-67" target="H6aLL0KiJfkArdERg_eH-81" edge="1">
          <mxGeometry relative="1" as="geometry">
            <Array as="points">
              <mxPoint x="970" y="265" />
            </Array>
          </mxGeometry>
        </mxCell>
        <mxCell id="H6aLL0KiJfkArdERg_eH-81" value="" style="whiteSpace=wrap;html=1;aspect=fixed;hachureGap=4;fillColor=#ffe6cc;strokeColor=#d79b00;fillStyle=cross-hatch;fontFamily=Courier New;" parent="1" vertex="1">
          <mxGeometry x="1030" y="110" width="20" height="20" as="geometry" />
        </mxCell>
        <mxCell id="H6aLL0KiJfkArdERg_eH-82" value="rs1/rs2" style="text;html=1;align=center;verticalAlign=middle;whiteSpace=wrap;rounded=0;fontFamily=Courier New;" parent="1" vertex="1">
          <mxGeometry x="990" y="90" width="50" height="20" as="geometry" />
        </mxCell>
        <mxCell id="H6aLL0KiJfkArdERg_eH-102" style="edgeStyle=orthogonalEdgeStyle;rounded=0;hachureGap=4;orthogonalLoop=1;jettySize=auto;html=1;exitX=1;exitY=0.5;exitDx=0;exitDy=0;entryX=0;entryY=0.75;entryDx=0;entryDy=0;fontFamily=Courier New;" parent="1" source="H6aLL0KiJfkArdERg_eH-83" target="H6aLL0KiJfkArdERg_eH-75" edge="1">
          <mxGeometry relative="1" as="geometry" />
        </mxCell>
        <mxCell id="H6aLL0KiJfkArdERg_eH-83" value="" style="whiteSpace=wrap;html=1;aspect=fixed;hachureGap=4;fillColor=#ffe6cc;strokeColor=#d79b00;fillStyle=cross-hatch;fontFamily=Courier New;" parent="1" vertex="1">
          <mxGeometry x="940" y="305" width="20" height="20" as="geometry" />
        </mxCell>
        <mxCell id="H6aLL0KiJfkArdERg_eH-84" value="" style="whiteSpace=wrap;html=1;aspect=fixed;hachureGap=4;fillColor=#ffe6cc;strokeColor=#d79b00;fillStyle=cross-hatch;fontFamily=Courier New;" parent="1" vertex="1">
          <mxGeometry x="940" y="370" width="20" height="20" as="geometry" />
        </mxCell>
        <mxCell id="H6aLL0KiJfkArdERg_eH-86" value="src1/src2" style="text;html=1;align=center;verticalAlign=middle;whiteSpace=wrap;rounded=0;fontFamily=Courier New;" parent="1" vertex="1">
          <mxGeometry x="1020" y="210" width="60" height="20" as="geometry" />
        </mxCell>
        <mxCell id="H6aLL0KiJfkArdERg_eH-87" value="PC" style="text;html=1;align=center;verticalAlign=middle;whiteSpace=wrap;rounded=0;fontFamily=Courier New;" parent="1" vertex="1">
          <mxGeometry x="920" y="285" width="30" height="20" as="geometry" />
        </mxCell>
        <mxCell id="H6aLL0KiJfkArdERg_eH-88" value="Imm" style="text;html=1;align=center;verticalAlign=middle;whiteSpace=wrap;rounded=0;fontFamily=Courier New;" parent="1" vertex="1">
          <mxGeometry x="920" y="350" width="30" height="20" as="geometry" />
        </mxCell>
        <mxCell id="H6aLL0KiJfkArdERg_eH-90" value="" style="whiteSpace=wrap;html=1;aspect=fixed;hachureGap=4;fillColor=#ffe6cc;strokeColor=#d79b00;fillStyle=cross-hatch;fontFamily=Courier New;" parent="1" vertex="1">
          <mxGeometry x="1150" y="30" width="20" height="20" as="geometry" />
        </mxCell>
        <mxCell id="H6aLL0KiJfkArdERg_eH-91" value="rd" style="text;html=1;align=center;verticalAlign=middle;whiteSpace=wrap;rounded=0;fontFamily=Courier New;" parent="1" vertex="1">
          <mxGeometry x="1160" y="10" width="20" height="20" as="geometry" />
        </mxCell>
        <mxCell id="H6aLL0KiJfkArdERg_eH-92" value="" style="whiteSpace=wrap;html=1;aspect=fixed;hachureGap=4;fillColor=#ffe6cc;strokeColor=#d79b00;fillStyle=cross-hatch;fontFamily=Courier New;" parent="1" vertex="1">
          <mxGeometry x="1150" y="70" width="20" height="20" as="geometry" />
        </mxCell>
        <mxCell id="H6aLL0KiJfkArdERg_eH-93" value="data" style="text;html=1;align=center;verticalAlign=middle;whiteSpace=wrap;rounded=0;fontFamily=Courier New;" parent="1" vertex="1">
          <mxGeometry x="1160" y="50" width="30" height="20" as="geometry" />
        </mxCell>
        <mxCell id="H6aLL0KiJfkArdERg_eH-96" style="edgeStyle=orthogonalEdgeStyle;rounded=0;hachureGap=4;orthogonalLoop=1;jettySize=auto;html=1;exitX=0;exitY=0.5;exitDx=0;exitDy=0;entryX=0.5;entryY=0;entryDx=0;entryDy=0;fontFamily=Courier New;" parent="1" source="H6aLL0KiJfkArdERg_eH-94" target="H6aLL0KiJfkArdERg_eH-70" edge="1">
          <mxGeometry relative="1" as="geometry" />
        </mxCell>
        <mxCell id="H6aLL0KiJfkArdERg_eH-94" value="" style="whiteSpace=wrap;html=1;aspect=fixed;hachureGap=4;fillColor=#ffe6cc;strokeColor=#d79b00;fillStyle=cross-hatch;fontFamily=Courier New;" parent="1" vertex="1">
          <mxGeometry x="1150" y="110" width="20" height="20" as="geometry" />
        </mxCell>
        <mxCell id="H6aLL0KiJfkArdERg_eH-95" value="forward" style="text;html=1;align=center;verticalAlign=middle;whiteSpace=wrap;rounded=0;fontFamily=Courier New;" parent="1" vertex="1">
          <mxGeometry x="1160" y="90" width="50" height="20" as="geometry" />
        </mxCell>
        <mxCell id="H6aLL0KiJfkArdERg_eH-98" value="" style="shape=flexArrow;endArrow=classic;html=1;rounded=0;hachureGap=4;dashed=1;dashPattern=8 8;fillColor=#fff2cc;strokeColor=#d6b656;fontFamily=Courier New;" parent="1" edge="1">
          <mxGeometry width="50" height="50" relative="1" as="geometry">
            <mxPoint x="640" y="444.31" as="sourcePoint" />
            <mxPoint x="760" y="444.31" as="targetPoint" />
          </mxGeometry>
        </mxCell>
        <mxCell id="H6aLL0KiJfkArdERg_eH-101" value="" style="endArrow=classic;html=1;rounded=0;hachureGap=4;exitX=0.5;exitY=1;exitDx=0;exitDy=0;entryX=0;entryY=0.292;entryDx=0;entryDy=0;entryPerimeter=0;fontFamily=Courier New;" parent="1" source="H6aLL0KiJfkArdERg_eH-79" target="H6aLL0KiJfkArdERg_eH-76" edge="1">
          <mxGeometry width="50" height="50" relative="1" as="geometry">
            <mxPoint x="910" y="520" as="sourcePoint" />
            <mxPoint x="960" y="470" as="targetPoint" />
            <Array as="points">
              <mxPoint x="1010" y="355" />
            </Array>
          </mxGeometry>
        </mxCell>
        <mxCell id="H6aLL0KiJfkArdERg_eH-105" style="edgeStyle=orthogonalEdgeStyle;rounded=0;hachureGap=4;orthogonalLoop=1;jettySize=auto;html=1;exitX=1;exitY=0.5;exitDx=0;exitDy=0;entryX=-0.013;entryY=0.71;entryDx=0;entryDy=0;entryPerimeter=0;fontFamily=Courier New;" parent="1" source="H6aLL0KiJfkArdERg_eH-84" target="H6aLL0KiJfkArdERg_eH-76" edge="1">
          <mxGeometry relative="1" as="geometry" />
        </mxCell>
        <mxCell id="H6aLL0KiJfkArdERg_eH-106" value="" style="endArrow=classic;html=1;rounded=0;hachureGap=4;exitX=0.5;exitY=1;exitDx=0;exitDy=0;entryX=0;entryY=0.5;entryDx=0;entryDy=0;fontFamily=Courier New;" parent="1" source="H6aLL0KiJfkArdERg_eH-79" target="H6aLL0KiJfkArdERg_eH-74" edge="1">
          <mxGeometry width="50" height="50" relative="1" as="geometry">
            <mxPoint x="1050" y="310" as="sourcePoint" />
            <mxPoint x="1100" y="260" as="targetPoint" />
            <Array as="points">
              <mxPoint x="1010" y="435" />
            </Array>
          </mxGeometry>
        </mxCell>
        <mxCell id="H6aLL0KiJfkArdERg_eH-174" style="edgeStyle=orthogonalEdgeStyle;rounded=0;hachureGap=4;orthogonalLoop=1;jettySize=auto;html=1;exitX=0.5;exitY=1;exitDx=0;exitDy=0;entryX=0.5;entryY=1;entryDx=0;entryDy=0;fontFamily=Courier New;" parent="1" source="H6aLL0KiJfkArdERg_eH-107" target="H6aLL0KiJfkArdERg_eH-171" edge="1">
          <mxGeometry relative="1" as="geometry" />
        </mxCell>
        <mxCell id="H6aLL0KiJfkArdERg_eH-107" value="" style="whiteSpace=wrap;html=1;aspect=fixed;hachureGap=4;fillColor=#ffe6cc;strokeColor=#d79b00;fillStyle=cross-hatch;fontFamily=Courier New;" parent="1" vertex="1">
          <mxGeometry x="1050" y="520" width="20" height="20" as="geometry" />
        </mxCell>
        <mxCell id="H6aLL0KiJfkArdERg_eH-109" value="dnpc" style="text;html=1;align=center;verticalAlign=middle;whiteSpace=wrap;rounded=0;fontFamily=Courier New;" parent="1" vertex="1">
          <mxGeometry x="1020" y="530" width="30" height="20" as="geometry" />
        </mxCell>
        <mxCell id="H6aLL0KiJfkArdERg_eH-117" style="edgeStyle=orthogonalEdgeStyle;rounded=0;hachureGap=4;orthogonalLoop=1;jettySize=auto;html=1;exitX=1;exitY=0.5;exitDx=0;exitDy=0;entryX=0.75;entryY=1;entryDx=0;entryDy=0;fontFamily=Courier New;" parent="1" source="H6aLL0KiJfkArdERg_eH-110" target="H6aLL0KiJfkArdERg_eH-115" edge="1">
          <mxGeometry relative="1" as="geometry" />
        </mxCell>
        <mxCell id="H6aLL0KiJfkArdERg_eH-110" value="" style="whiteSpace=wrap;html=1;aspect=fixed;hachureGap=4;fillColor=#ffe6cc;strokeColor=#d79b00;fillStyle=cross-hatch;fontFamily=Courier New;" parent="1" vertex="1">
          <mxGeometry x="940" y="470" width="20" height="20" as="geometry" />
        </mxCell>
        <mxCell id="H6aLL0KiJfkArdERg_eH-111" value="snpc" style="text;html=1;align=center;verticalAlign=middle;whiteSpace=wrap;rounded=0;fontFamily=Courier New;" parent="1" vertex="1">
          <mxGeometry x="920" y="450" width="30" height="20" as="geometry" />
        </mxCell>
        <mxCell id="H6aLL0KiJfkArdERg_eH-125" style="edgeStyle=orthogonalEdgeStyle;rounded=0;hachureGap=4;orthogonalLoop=1;jettySize=auto;html=1;exitX=0.5;exitY=0;exitDx=0;exitDy=0;entryX=0;entryY=0.5;entryDx=0;entryDy=0;fontFamily=Courier New;" parent="1" source="H6aLL0KiJfkArdERg_eH-115" target="H6aLL0KiJfkArdERg_eH-123" edge="1">
          <mxGeometry relative="1" as="geometry" />
        </mxCell>
        <mxCell id="H6aLL0KiJfkArdERg_eH-115" value="" style="shape=trapezoid;perimeter=trapezoidPerimeter;whiteSpace=wrap;html=1;fixedSize=1;hachureGap=4;rotation=90;fillColor=#d5e8d4;strokeColor=#82b366;fontFamily=Courier New;" parent="1" vertex="1">
          <mxGeometry x="1210" y="450" width="60" height="30" as="geometry" />
        </mxCell>
        <mxCell id="H6aLL0KiJfkArdERg_eH-119" value="Exu" style="text;html=1;align=center;verticalAlign=middle;whiteSpace=wrap;rounded=0;fontFamily=Courier New;" parent="1" vertex="1">
          <mxGeometry x="970" y="245" width="40" height="20" as="geometry" />
        </mxCell>
        <mxCell id="H6aLL0KiJfkArdERg_eH-120" value="" style="whiteSpace=wrap;html=1;aspect=fixed;hachureGap=4;fillColor=#ffe6cc;strokeColor=#d79b00;fillStyle=cross-hatch;fontFamily=Courier New;" parent="1" vertex="1">
          <mxGeometry x="1290" y="265" width="20" height="20" as="geometry" />
        </mxCell>
        <mxCell id="H6aLL0KiJfkArdERg_eH-121" value="lsu" style="text;html=1;align=center;verticalAlign=middle;whiteSpace=wrap;rounded=0;fontFamily=Courier New;" parent="1" vertex="1">
          <mxGeometry x="1300" y="245" width="30" height="20" as="geometry" />
        </mxCell>
        <mxCell id="H6aLL0KiJfkArdERg_eH-123" value="" style="whiteSpace=wrap;html=1;aspect=fixed;hachureGap=4;fillColor=#ffe6cc;strokeColor=#d79b00;fillStyle=cross-hatch;fontFamily=Courier New;" parent="1" vertex="1">
          <mxGeometry x="1290" y="455" width="20" height="20" as="geometry" />
        </mxCell>
        <mxCell id="H6aLL0KiJfkArdERg_eH-124" value="exu_out" style="text;html=1;align=center;verticalAlign=middle;whiteSpace=wrap;rounded=0;fontFamily=Courier New;" parent="1" vertex="1">
          <mxGeometry x="1300" y="435" width="50" height="20" as="geometry" />
        </mxCell>
        <mxCell id="H6aLL0KiJfkArdERg_eH-126" value="Reg" style="ellipse;whiteSpace=wrap;html=1;hachureGap=4;fillColor=#e1d5e7;strokeColor=#9673a6;fontFamily=Courier New;fillStyle=zigzag-line;" parent="1" vertex="1">
          <mxGeometry x="1340" y="222.5" width="40" height="290" as="geometry" />
        </mxCell>
        <mxCell id="H6aLL0KiJfkArdERg_eH-127" value="" style="rounded=1;whiteSpace=wrap;html=1;hachureGap=4;arcSize=12;fillColor=#f9f7ed;strokeColor=#36393d;dashed=1;fontFamily=Courier New;fillStyle=dashed;" parent="1" vertex="1">
          <mxGeometry x="1430" y="220" width="350" height="190" as="geometry" />
        </mxCell>
        <mxCell id="H6aLL0KiJfkArdERg_eH-140" style="edgeStyle=orthogonalEdgeStyle;rounded=0;hachureGap=4;orthogonalLoop=1;jettySize=auto;html=1;exitX=1;exitY=0.5;exitDx=0;exitDy=0;entryX=0;entryY=0.5;entryDx=0;entryDy=0;fontFamily=Courier New;" parent="1" source="H6aLL0KiJfkArdERg_eH-128" target="H6aLL0KiJfkArdERg_eH-135" edge="1">
          <mxGeometry relative="1" as="geometry" />
        </mxCell>
        <mxCell id="H6aLL0KiJfkArdERg_eH-178" style="edgeStyle=orthogonalEdgeStyle;rounded=0;hachureGap=4;orthogonalLoop=1;jettySize=auto;html=1;exitX=0.5;exitY=0;exitDx=0;exitDy=0;entryX=0.75;entryY=1;entryDx=0;entryDy=0;startArrow=classic;startFill=1;fontFamily=Courier New;" parent="1" source="H6aLL0KiJfkArdERg_eH-128" target="H6aLL0KiJfkArdERg_eH-176" edge="1">
          <mxGeometry relative="1" as="geometry">
            <Array as="points">
              <mxPoint x="1560" y="200" />
              <mxPoint x="695" y="200" />
            </Array>
          </mxGeometry>
        </mxCell>
        <mxCell id="H6aLL0KiJfkArdERg_eH-128" value="D$" style="rounded=0;whiteSpace=wrap;html=1;hachureGap=4;fontFamily=Courier New;fillColor=#b1ddf0;strokeColor=#10739e;" parent="1" vertex="1">
          <mxGeometry x="1520" y="245" width="80" height="60" as="geometry" />
        </mxCell>
        <mxCell id="H6aLL0KiJfkArdERg_eH-131" style="edgeStyle=orthogonalEdgeStyle;rounded=0;hachureGap=4;orthogonalLoop=1;jettySize=auto;html=1;exitX=1;exitY=0.5;exitDx=0;exitDy=0;entryX=0;entryY=0.5;entryDx=0;entryDy=0;fontFamily=Courier New;" parent="1" source="H6aLL0KiJfkArdERg_eH-129" target="H6aLL0KiJfkArdERg_eH-128" edge="1">
          <mxGeometry relative="1" as="geometry" />
        </mxCell>
        <mxCell id="H6aLL0KiJfkArdERg_eH-129" value="" style="whiteSpace=wrap;html=1;aspect=fixed;hachureGap=4;fillColor=#ffe6cc;strokeColor=#d79b00;fillStyle=cross-hatch;fontFamily=Courier New;" parent="1" vertex="1">
          <mxGeometry x="1420" y="265" width="20" height="20" as="geometry" />
        </mxCell>
        <mxCell id="H6aLL0KiJfkArdERg_eH-132" value="lsu" style="text;html=1;align=center;verticalAlign=middle;whiteSpace=wrap;rounded=0;fontFamily=Courier New;" parent="1" vertex="1">
          <mxGeometry x="1400" y="245" width="30" height="20" as="geometry" />
        </mxCell>
        <mxCell id="H6aLL0KiJfkArdERg_eH-143" style="edgeStyle=orthogonalEdgeStyle;rounded=0;hachureGap=4;orthogonalLoop=1;jettySize=auto;html=1;exitX=1;exitY=0.5;exitDx=0;exitDy=0;entryX=0.75;entryY=1;entryDx=0;entryDy=0;fontFamily=Courier New;" parent="1" source="H6aLL0KiJfkArdERg_eH-133" target="H6aLL0KiJfkArdERg_eH-136" edge="1">
          <mxGeometry relative="1" as="geometry" />
        </mxCell>
        <mxCell id="H6aLL0KiJfkArdERg_eH-133" value="" style="whiteSpace=wrap;html=1;aspect=fixed;hachureGap=4;fillColor=#ffe6cc;strokeColor=#d79b00;fillStyle=cross-hatch;fontFamily=Courier New;" parent="1" vertex="1">
          <mxGeometry x="1420" y="360" width="20" height="20" as="geometry" />
        </mxCell>
        <mxCell id="H6aLL0KiJfkArdERg_eH-134" value="exu_out" style="text;html=1;align=center;verticalAlign=middle;whiteSpace=wrap;rounded=0;fontFamily=Courier New;" parent="1" vertex="1">
          <mxGeometry x="1380" y="337.5" width="50" height="20" as="geometry" />
        </mxCell>
        <mxCell id="H6aLL0KiJfkArdERg_eH-144" style="edgeStyle=orthogonalEdgeStyle;rounded=0;hachureGap=4;orthogonalLoop=1;jettySize=auto;html=1;exitX=0.5;exitY=1;exitDx=0;exitDy=0;entryX=0.25;entryY=1;entryDx=0;entryDy=0;fontFamily=Courier New;" parent="1" source="H6aLL0KiJfkArdERg_eH-135" target="H6aLL0KiJfkArdERg_eH-136" edge="1">
          <mxGeometry relative="1" as="geometry" />
        </mxCell>
        <mxCell id="H6aLL0KiJfkArdERg_eH-135" value="suf LSU" style="rounded=0;whiteSpace=wrap;html=1;hachureGap=4;fillColor=#dae8fc;strokeColor=#6c8ebf;fontFamily=Courier New;" parent="1" vertex="1">
          <mxGeometry x="1630" y="250" width="60" height="50" as="geometry" />
        </mxCell>
        <mxCell id="H6aLL0KiJfkArdERg_eH-146" style="edgeStyle=orthogonalEdgeStyle;rounded=0;hachureGap=4;orthogonalLoop=1;jettySize=auto;html=1;exitX=0.5;exitY=0;exitDx=0;exitDy=0;entryX=0;entryY=0.5;entryDx=0;entryDy=0;fontFamily=Courier New;" parent="1" source="H6aLL0KiJfkArdERg_eH-136" target="H6aLL0KiJfkArdERg_eH-145" edge="1">
          <mxGeometry relative="1" as="geometry" />
        </mxCell>
        <mxCell id="H6aLL0KiJfkArdERg_eH-136" value="" style="shape=trapezoid;perimeter=trapezoidPerimeter;whiteSpace=wrap;html=1;fixedSize=1;hachureGap=4;rotation=90;fillColor=#d5e8d4;strokeColor=#82b366;fontFamily=Courier New;" parent="1" vertex="1">
          <mxGeometry x="1690" y="340" width="60" height="30" as="geometry" />
        </mxCell>
        <mxCell id="H6aLL0KiJfkArdERg_eH-139" style="edgeStyle=orthogonalEdgeStyle;rounded=0;hachureGap=4;orthogonalLoop=1;jettySize=auto;html=1;exitX=0.5;exitY=0;exitDx=0;exitDy=0;entryX=1;entryY=0.5;entryDx=0;entryDy=0;fontFamily=Courier New;" parent="1" source="H6aLL0KiJfkArdERg_eH-137" target="H6aLL0KiJfkArdERg_eH-94" edge="1">
          <mxGeometry relative="1" as="geometry" />
        </mxCell>
        <mxCell id="H6aLL0KiJfkArdERg_eH-137" value="" style="whiteSpace=wrap;html=1;aspect=fixed;hachureGap=4;fillColor=#ffe6cc;strokeColor=#d79b00;fillStyle=cross-hatch;fontFamily=Courier New;" parent="1" vertex="1">
          <mxGeometry x="1740" y="210" width="20" height="20" as="geometry" />
        </mxCell>
        <mxCell id="H6aLL0KiJfkArdERg_eH-138" value="forward" style="text;html=1;align=center;verticalAlign=middle;whiteSpace=wrap;rounded=0;fontFamily=Courier New;" parent="1" vertex="1">
          <mxGeometry x="1700" y="195" width="50" height="20" as="geometry" />
        </mxCell>
        <mxCell id="H6aLL0KiJfkArdERg_eH-145" value="" style="whiteSpace=wrap;html=1;aspect=fixed;hachureGap=4;fillColor=#ffe6cc;strokeColor=#d79b00;fillStyle=cross-hatch;fontFamily=Courier New;" parent="1" vertex="1">
          <mxGeometry x="1770" y="345" width="20" height="20" as="geometry" />
        </mxCell>
        <mxCell id="H6aLL0KiJfkArdERg_eH-147" value="lsu_out" style="text;html=1;align=center;verticalAlign=middle;whiteSpace=wrap;rounded=0;fontFamily=Courier New;" parent="1" vertex="1">
          <mxGeometry x="1780" y="325" width="50" height="20" as="geometry" />
        </mxCell>
        <mxCell id="H6aLL0KiJfkArdERg_eH-148" value="Reg" style="ellipse;whiteSpace=wrap;html=1;hachureGap=4;fillColor=#e1d5e7;strokeColor=#9673a6;fontFamily=Courier New;fillStyle=zigzag-line;" parent="1" vertex="1">
          <mxGeometry x="1830" y="240" width="40" height="150" as="geometry" />
        </mxCell>
        <mxCell id="H6aLL0KiJfkArdERg_eH-149" value="Lsu" style="text;html=1;align=center;verticalAlign=middle;whiteSpace=wrap;rounded=0;fontFamily=Courier New;" parent="1" vertex="1">
          <mxGeometry x="1440" y="230" width="40" height="20" as="geometry" />
        </mxCell>
        <mxCell id="H6aLL0KiJfkArdERg_eH-150" value="" style="rounded=1;whiteSpace=wrap;html=1;hachureGap=4;arcSize=12;fillColor=#f9f7ed;strokeColor=#36393d;dashed=1;fontFamily=Courier New;fillStyle=dashed;" parent="1" vertex="1">
          <mxGeometry x="1920" y="215" width="130" height="195" as="geometry" />
        </mxCell>
        <mxCell id="H6aLL0KiJfkArdERg_eH-167" style="edgeStyle=orthogonalEdgeStyle;rounded=0;hachureGap=4;orthogonalLoop=1;jettySize=auto;html=1;exitX=1;exitY=0.5;exitDx=0;exitDy=0;entryX=0.5;entryY=1;entryDx=0;entryDy=0;fontFamily=Courier New;" parent="1" source="H6aLL0KiJfkArdERg_eH-153" target="H6aLL0KiJfkArdERg_eH-160" edge="1">
          <mxGeometry relative="1" as="geometry" />
        </mxCell>
        <mxCell id="H6aLL0KiJfkArdERg_eH-153" value="" style="whiteSpace=wrap;html=1;aspect=fixed;hachureGap=4;fillColor=#ffe6cc;strokeColor=#d79b00;fillStyle=cross-hatch;fontFamily=Courier New;" parent="1" vertex="1">
          <mxGeometry x="1910" y="360" width="20" height="20" as="geometry" />
        </mxCell>
        <mxCell id="H6aLL0KiJfkArdERg_eH-154" value="lsu_out" style="text;html=1;align=center;verticalAlign=middle;whiteSpace=wrap;rounded=0;fontFamily=Courier New;" parent="1" vertex="1">
          <mxGeometry x="1870" y="340" width="50" height="20" as="geometry" />
        </mxCell>
        <mxCell id="H6aLL0KiJfkArdERg_eH-169" style="edgeStyle=orthogonalEdgeStyle;rounded=0;hachureGap=4;orthogonalLoop=1;jettySize=auto;html=1;exitX=0.5;exitY=0;exitDx=0;exitDy=0;entryX=1;entryY=0.5;entryDx=0;entryDy=0;fontFamily=Courier New;" parent="1" source="H6aLL0KiJfkArdERg_eH-157" target="H6aLL0KiJfkArdERg_eH-90" edge="1">
          <mxGeometry relative="1" as="geometry" />
        </mxCell>
        <mxCell id="H6aLL0KiJfkArdERg_eH-157" value="" style="whiteSpace=wrap;html=1;aspect=fixed;hachureGap=4;fillColor=#ffe6cc;strokeColor=#d79b00;fillStyle=cross-hatch;fontFamily=Courier New;" parent="1" vertex="1">
          <mxGeometry x="1960" y="205" width="20" height="20" as="geometry" />
        </mxCell>
        <mxCell id="H6aLL0KiJfkArdERg_eH-158" value="rd" style="text;html=1;align=center;verticalAlign=middle;whiteSpace=wrap;rounded=0;fontFamily=Courier New;" parent="1" vertex="1">
          <mxGeometry x="1980" y="195" width="20" height="20" as="geometry" />
        </mxCell>
        <mxCell id="H6aLL0KiJfkArdERg_eH-170" style="edgeStyle=orthogonalEdgeStyle;rounded=0;hachureGap=4;orthogonalLoop=1;jettySize=auto;html=1;exitX=0.5;exitY=0;exitDx=0;exitDy=0;entryX=1;entryY=0.5;entryDx=0;entryDy=0;fontFamily=Courier New;" parent="1" source="H6aLL0KiJfkArdERg_eH-160" target="H6aLL0KiJfkArdERg_eH-92" edge="1">
          <mxGeometry relative="1" as="geometry" />
        </mxCell>
        <mxCell id="H6aLL0KiJfkArdERg_eH-160" value="" style="whiteSpace=wrap;html=1;aspect=fixed;hachureGap=4;fillColor=#ffe6cc;strokeColor=#d79b00;fillStyle=cross-hatch;fontFamily=Courier New;" parent="1" vertex="1">
          <mxGeometry x="2000" y="205" width="20" height="20" as="geometry" />
        </mxCell>
        <mxCell id="H6aLL0KiJfkArdERg_eH-161" value="data" style="text;html=1;align=center;verticalAlign=middle;whiteSpace=wrap;rounded=0;fontFamily=Courier New;" parent="1" vertex="1">
          <mxGeometry x="2020" y="195" width="30" height="20" as="geometry" />
        </mxCell>
        <mxCell id="H6aLL0KiJfkArdERg_eH-166" style="edgeStyle=orthogonalEdgeStyle;rounded=0;hachureGap=4;orthogonalLoop=1;jettySize=auto;html=1;exitX=1;exitY=0.5;exitDx=0;exitDy=0;entryX=0.5;entryY=1;entryDx=0;entryDy=0;fontFamily=Courier New;" parent="1" source="H6aLL0KiJfkArdERg_eH-164" target="H6aLL0KiJfkArdERg_eH-157" edge="1">
          <mxGeometry relative="1" as="geometry" />
        </mxCell>
        <mxCell id="H6aLL0KiJfkArdERg_eH-164" value="" style="whiteSpace=wrap;html=1;aspect=fixed;hachureGap=4;fillColor=#ffe6cc;strokeColor=#d79b00;fillStyle=cross-hatch;fontFamily=Courier New;" parent="1" vertex="1">
          <mxGeometry x="1910" y="270" width="20" height="20" as="geometry" />
        </mxCell>
        <mxCell id="H6aLL0KiJfkArdERg_eH-165" value="rd" style="text;html=1;align=center;verticalAlign=middle;whiteSpace=wrap;rounded=0;fontFamily=Courier New;" parent="1" vertex="1">
          <mxGeometry x="1900" y="250" width="20" height="20" as="geometry" />
        </mxCell>
        <mxCell id="H6aLL0KiJfkArdERg_eH-171" value="" style="whiteSpace=wrap;html=1;aspect=fixed;hachureGap=4;fillColor=#ffe6cc;strokeColor=#d79b00;fillStyle=cross-hatch;fontFamily=Courier New;" parent="1" vertex="1">
          <mxGeometry x="395" y="530" width="20" height="20" as="geometry" />
        </mxCell>
        <mxCell id="H6aLL0KiJfkArdERg_eH-172" value="dnpc" style="text;html=1;align=center;verticalAlign=middle;whiteSpace=wrap;rounded=0;fontFamily=Courier New;" parent="1" vertex="1">
          <mxGeometry x="365" y="540" width="30" height="20" as="geometry" />
        </mxCell>
        <mxCell id="H6aLL0KiJfkArdERg_eH-176" value="AXI Arbiter" style="rounded=0;whiteSpace=wrap;html=1;hachureGap=4;fillColor=#d5e8d4;strokeColor=#82b366;fontFamily=Courier New;" parent="1" vertex="1">
          <mxGeometry x="590" y="80" width="140" height="50" as="geometry" />
        </mxCell>
        <mxCell id="H6aLL0KiJfkArdERg_eH-179" value="xBar" style="rounded=0;whiteSpace=wrap;html=1;hachureGap=4;fillColor=#d5e8d4;strokeColor=#82b366;fontFamily=Courier New;" parent="1" vertex="1">
          <mxGeometry x="590" y="-160" width="140" height="110" as="geometry" />
        </mxCell>
        <mxCell id="H6aLL0KiJfkArdERg_eH-180" value="Core" style="text;html=1;align=center;verticalAlign=middle;whiteSpace=wrap;rounded=0;fontFamily=Courier New;" parent="1" vertex="1">
          <mxGeometry x="170" y="5" width="60" height="30" as="geometry" />
        </mxCell>
        <mxCell id="H6aLL0KiJfkArdERg_eH-182" style="edgeStyle=orthogonalEdgeStyle;rounded=0;hachureGap=4;orthogonalLoop=1;jettySize=auto;html=1;exitX=1;exitY=0.5;exitDx=0;exitDy=0;entryX=0.032;entryY=0.26;entryDx=0;entryDy=0;entryPerimeter=0;fontFamily=Courier New;" parent="1" source="H6aLL0KiJfkArdERg_eH-14" target="H6aLL0KiJfkArdERg_eH-20" edge="1">
          <mxGeometry relative="1" as="geometry" />
        </mxCell>
        <mxCell id="H6aLL0KiJfkArdERg_eH-183" style="edgeStyle=orthogonalEdgeStyle;rounded=0;hachureGap=4;orthogonalLoop=1;jettySize=auto;html=1;exitX=1;exitY=0.5;exitDx=0;exitDy=0;entryX=-0.037;entryY=0.476;entryDx=0;entryDy=0;entryPerimeter=0;fontFamily=Courier New;" parent="1" source="H6aLL0KiJfkArdERg_eH-15" target="H6aLL0KiJfkArdERg_eH-20" edge="1">
          <mxGeometry relative="1" as="geometry" />
        </mxCell>
        <mxCell id="H6aLL0KiJfkArdERg_eH-184" style="edgeStyle=orthogonalEdgeStyle;rounded=0;hachureGap=4;orthogonalLoop=1;jettySize=auto;html=1;exitX=1;exitY=0.5;exitDx=0;exitDy=0;entryX=0;entryY=0.761;entryDx=0;entryDy=0;entryPerimeter=0;fontFamily=Courier New;" parent="1" source="H6aLL0KiJfkArdERg_eH-30" target="H6aLL0KiJfkArdERg_eH-20" edge="1">
          <mxGeometry relative="1" as="geometry" />
        </mxCell>
        <mxCell id="H6aLL0KiJfkArdERg_eH-185" style="edgeStyle=orthogonalEdgeStyle;rounded=0;hachureGap=4;orthogonalLoop=1;jettySize=auto;html=1;exitX=0.9;exitY=0.17;exitDx=0;exitDy=0;entryX=0;entryY=0.5;entryDx=0;entryDy=0;exitPerimeter=0;fontFamily=Courier New;" parent="1" source="H6aLL0KiJfkArdERg_eH-20" target="H6aLL0KiJfkArdERg_eH-38" edge="1">
          <mxGeometry relative="1" as="geometry" />
        </mxCell>
        <mxCell id="H6aLL0KiJfkArdERg_eH-186" style="edgeStyle=orthogonalEdgeStyle;rounded=0;hachureGap=4;orthogonalLoop=1;jettySize=auto;html=1;exitX=1;exitY=0.5;exitDx=0;exitDy=0;entryX=0.1;entryY=0.161;entryDx=0;entryDy=0;entryPerimeter=0;fontFamily=Courier New;" parent="1" source="H6aLL0KiJfkArdERg_eH-50" target="H6aLL0KiJfkArdERg_eH-67" edge="1">
          <mxGeometry relative="1" as="geometry" />
        </mxCell>
        <mxCell id="H6aLL0KiJfkArdERg_eH-187" style="edgeStyle=orthogonalEdgeStyle;rounded=0;hachureGap=4;orthogonalLoop=1;jettySize=auto;html=1;exitX=1;exitY=0.5;exitDx=0;exitDy=0;entryX=-0.05;entryY=0.387;entryDx=0;entryDy=0;entryPerimeter=0;fontFamily=Courier New;" parent="1" source="H6aLL0KiJfkArdERg_eH-52" target="H6aLL0KiJfkArdERg_eH-67" edge="1">
          <mxGeometry relative="1" as="geometry" />
        </mxCell>
        <mxCell id="H6aLL0KiJfkArdERg_eH-188" style="edgeStyle=orthogonalEdgeStyle;rounded=0;hachureGap=4;orthogonalLoop=1;jettySize=auto;html=1;exitX=1;exitY=0.5;exitDx=0;exitDy=0;entryX=-0.062;entryY=0.534;entryDx=0;entryDy=0;entryPerimeter=0;fontFamily=Courier New;" parent="1" source="H6aLL0KiJfkArdERg_eH-56" target="H6aLL0KiJfkArdERg_eH-67" edge="1">
          <mxGeometry relative="1" as="geometry" />
        </mxCell>
        <mxCell id="H6aLL0KiJfkArdERg_eH-189" style="edgeStyle=orthogonalEdgeStyle;rounded=0;hachureGap=4;orthogonalLoop=1;jettySize=auto;html=1;exitX=0.988;exitY=0.308;exitDx=0;exitDy=0;entryX=0;entryY=0.5;entryDx=0;entryDy=0;exitPerimeter=0;fontFamily=Courier New;" parent="1" source="H6aLL0KiJfkArdERg_eH-67" target="H6aLL0KiJfkArdERg_eH-83" edge="1">
          <mxGeometry relative="1" as="geometry" />
        </mxCell>
        <mxCell id="H6aLL0KiJfkArdERg_eH-190" style="edgeStyle=orthogonalEdgeStyle;rounded=0;hachureGap=4;orthogonalLoop=1;jettySize=auto;html=1;exitX=1;exitY=0.516;exitDx=0;exitDy=0;entryX=0;entryY=0.5;entryDx=0;entryDy=0;exitPerimeter=0;fontFamily=Courier New;" parent="1" source="H6aLL0KiJfkArdERg_eH-67" target="H6aLL0KiJfkArdERg_eH-84" edge="1">
          <mxGeometry relative="1" as="geometry" />
        </mxCell>
        <mxCell id="H6aLL0KiJfkArdERg_eH-194" style="edgeStyle=orthogonalEdgeStyle;rounded=0;hachureGap=4;orthogonalLoop=1;jettySize=auto;html=1;exitX=1;exitY=0.5;exitDx=0;exitDy=0;entryX=0.07;entryY=0.77;entryDx=0;entryDy=0;entryPerimeter=0;fontFamily=Courier New;" parent="1" source="H6aLL0KiJfkArdERg_eH-145" target="H6aLL0KiJfkArdERg_eH-148" edge="1">
          <mxGeometry relative="1" as="geometry" />
        </mxCell>
        <mxCell id="H6aLL0KiJfkArdERg_eH-195" style="edgeStyle=orthogonalEdgeStyle;rounded=0;hachureGap=4;orthogonalLoop=1;jettySize=auto;html=1;exitX=0.929;exitY=0.864;exitDx=0;exitDy=0;entryX=0;entryY=0.5;entryDx=0;entryDy=0;exitPerimeter=0;fontFamily=Courier New;" parent="1" source="H6aLL0KiJfkArdERg_eH-148" target="H6aLL0KiJfkArdERg_eH-153" edge="1">
          <mxGeometry relative="1" as="geometry" />
        </mxCell>
        <mxCell id="H6aLL0KiJfkArdERg_eH-196" value="" style="shape=flexArrow;endArrow=classic;html=1;rounded=0;hachureGap=4;fillColor=#f8cecc;strokeColor=#b85450;startArrow=block;fontFamily=Courier New;" parent="1" edge="1">
          <mxGeometry width="50" height="50" relative="1" as="geometry">
            <mxPoint x="659.49" y="70" as="sourcePoint" />
            <mxPoint x="659" y="-40" as="targetPoint" />
          </mxGeometry>
        </mxCell>
        <mxCell id="H6aLL0KiJfkArdERg_eH-197" value="UART" style="rounded=0;whiteSpace=wrap;html=1;hachureGap=4;fontFamily=Courier New;fillColor=#dae8fc;strokeColor=#6c8ebf;" parent="1" vertex="1">
          <mxGeometry x="795" y="-160" width="50" height="50" as="geometry" />
        </mxCell>
        <mxCell id="H6aLL0KiJfkArdERg_eH-198" value="RAM" style="rounded=0;whiteSpace=wrap;html=1;hachureGap=4;fontFamily=Courier New;fillColor=#dae8fc;strokeColor=#6c8ebf;" parent="1" vertex="1">
          <mxGeometry x="795" y="-100" width="50" height="50" as="geometry" />
        </mxCell>
        <mxCell id="H6aLL0KiJfkArdERg_eH-199" value="" style="endArrow=classic;startArrow=classic;html=1;rounded=0;hachureGap=4;exitX=1.015;exitY=0.764;exitDx=0;exitDy=0;entryX=0;entryY=0.5;entryDx=0;entryDy=0;fontFamily=Courier New;exitPerimeter=0;" parent="1" source="H6aLL0KiJfkArdERg_eH-179" target="H6aLL0KiJfkArdERg_eH-198" edge="1">
          <mxGeometry width="50" height="50" relative="1" as="geometry">
            <mxPoint x="770" y="-50" as="sourcePoint" />
            <mxPoint x="820" y="-100" as="targetPoint" />
          </mxGeometry>
        </mxCell>
        <mxCell id="H6aLL0KiJfkArdERg_eH-201" value="" style="endArrow=classic;startArrow=classic;html=1;rounded=0;hachureGap=4;exitX=1.019;exitY=0.219;exitDx=0;exitDy=0;entryX=0;entryY=0.5;entryDx=0;entryDy=0;fontFamily=Courier New;exitPerimeter=0;" parent="1" source="H6aLL0KiJfkArdERg_eH-179" target="H6aLL0KiJfkArdERg_eH-197" edge="1">
          <mxGeometry width="50" height="50" relative="1" as="geometry">
            <mxPoint x="770" y="-140" as="sourcePoint" />
            <mxPoint x="820" y="-190" as="targetPoint" />
          </mxGeometry>
        </mxCell>
        <mxCell id="qHLcgecMX0Fw_x5kUmmq-1" value="Wbu" style="text;html=1;align=center;verticalAlign=middle;whiteSpace=wrap;rounded=0;fontFamily=Courier New;" parent="1" vertex="1">
          <mxGeometry x="1920" y="225" width="40" height="20" as="geometry" />
        </mxCell>
        <mxCell id="21z7svGkfn5s8OX5ykdy-3" value="" style="endArrow=classic;html=1;rounded=0;hachureGap=4;fontFamily=Courier New;entryX=0;entryY=0.5;entryDx=0;entryDy=0;exitX=1;exitY=0.5;exitDx=0;exitDy=0;" parent="1" source="H6aLL0KiJfkArdERg_eH-2" target="H6aLL0KiJfkArdERg_eH-15" edge="1">
          <mxGeometry width="50" height="50" relative="1" as="geometry">
            <mxPoint x="250" y="360" as="sourcePoint" />
            <mxPoint x="40" y="330" as="targetPoint" />
          </mxGeometry>
        </mxCell>
        <mxCell id="21z7svGkfn5s8OX5ykdy-5" value="" style="endArrow=classic;html=1;rounded=0;hachureGap=4;fontFamily=Courier New;entryX=0;entryY=0.5;entryDx=0;entryDy=0;exitX=1.018;exitY=0.269;exitDx=0;exitDy=0;exitPerimeter=0;" parent="1" source="H6aLL0KiJfkArdERg_eH-148" target="H6aLL0KiJfkArdERg_eH-164" edge="1">
          <mxGeometry width="50" height="50" relative="1" as="geometry">
            <mxPoint x="1790" y="230" as="sourcePoint" />
            <mxPoint x="1840" y="180" as="targetPoint" />
          </mxGeometry>
        </mxCell>
        <mxCell id="i81uYEMeawYJMXelATNd-1" style="edgeStyle=orthogonalEdgeStyle;rounded=0;hachureGap=4;orthogonalLoop=1;jettySize=auto;html=1;exitX=1;exitY=0.5;exitDx=0;exitDy=0;entryX=0.088;entryY=0.837;entryDx=0;entryDy=0;entryPerimeter=0;fontFamily=Courier New;" parent="1" source="H6aLL0KiJfkArdERg_eH-123" target="H6aLL0KiJfkArdERg_eH-126" edge="1">
          <mxGeometry relative="1" as="geometry" />
        </mxCell>
        <mxCell id="i81uYEMeawYJMXelATNd-2" style="edgeStyle=orthogonalEdgeStyle;rounded=0;hachureGap=4;orthogonalLoop=1;jettySize=auto;html=1;exitX=1;exitY=0.5;exitDx=0;exitDy=0;entryX=0.048;entryY=0.183;entryDx=0;entryDy=0;entryPerimeter=0;fontFamily=Courier New;" parent="1" source="H6aLL0KiJfkArdERg_eH-120" target="H6aLL0KiJfkArdERg_eH-126" edge="1">
          <mxGeometry relative="1" as="geometry" />
        </mxCell>
        <mxCell id="i81uYEMeawYJMXelATNd-4" style="edgeStyle=orthogonalEdgeStyle;rounded=0;hachureGap=4;orthogonalLoop=1;jettySize=auto;html=1;exitX=0;exitY=0.5;exitDx=0;exitDy=0;entryX=1.067;entryY=0.511;entryDx=0;entryDy=0;entryPerimeter=0;fontFamily=Courier New;startArrow=classic;startFill=1;endArrow=none;endFill=0;" parent="1" target="H6aLL0KiJfkArdERg_eH-126" edge="1">
          <mxGeometry relative="1" as="geometry">
            <mxPoint x="1420" y="370.25" as="sourcePoint" />
            <mxPoint x="1375" y="369.25" as="targetPoint" />
          </mxGeometry>
        </mxCell>
        <mxCell id="i81uYEMeawYJMXelATNd-5" value="CLINT" style="rounded=0;whiteSpace=wrap;html=1;hachureGap=4;fontFamily=Courier New;fillColor=#dae8fc;strokeColor=#6c8ebf;" parent="1" vertex="1">
          <mxGeometry x="480" y="-140" width="50" height="50" as="geometry" />
        </mxCell>
        <mxCell id="i81uYEMeawYJMXelATNd-6" value="" style="endArrow=classic;startArrow=classic;html=1;rounded=0;hachureGap=4;fontFamily=Courier New;exitX=1.017;exitY=0.584;exitDx=0;exitDy=0;exitPerimeter=0;entryX=-0.012;entryY=0.451;entryDx=0;entryDy=0;entryPerimeter=0;" parent="1" source="i81uYEMeawYJMXelATNd-5" target="H6aLL0KiJfkArdERg_eH-179" edge="1">
          <mxGeometry width="50" height="50" relative="1" as="geometry">
            <mxPoint x="500" y="-90" as="sourcePoint" />
            <mxPoint x="550" y="-140" as="targetPoint" />
          </mxGeometry>
        </mxCell>
        <mxCell id="ujzUuT8ZMmnabHYl8dIp-3" value="" style="endArrow=classic;html=1;rounded=0;entryX=0;entryY=0.5;entryDx=0;entryDy=0;exitX=0.95;exitY=0.182;exitDx=0;exitDy=0;exitPerimeter=0;" edge="1" parent="1" source="H6aLL0KiJfkArdERg_eH-126" target="H6aLL0KiJfkArdERg_eH-129">
          <mxGeometry width="50" height="50" relative="1" as="geometry">
            <mxPoint x="1370" y="180" as="sourcePoint" />
            <mxPoint x="1420" y="130" as="targetPoint" />
          </mxGeometry>
        </mxCell>
        <mxCell id="ujzUuT8ZMmnabHYl8dIp-4" value="" style="endArrow=classic;html=1;rounded=0;entryX=0.772;entryY=0.991;entryDx=0;entryDy=0;entryPerimeter=0;exitX=0.5;exitY=0;exitDx=0;exitDy=0;" edge="1" parent="1" source="H6aLL0KiJfkArdERg_eH-171" target="H6aLL0KiJfkArdERg_eH-1">
          <mxGeometry width="50" height="50" relative="1" as="geometry">
            <mxPoint x="310" y="600" as="sourcePoint" />
            <mxPoint x="360" y="550" as="targetPoint" />
          </mxGeometry>
        </mxCell>
        <mxCell id="ujzUuT8ZMmnabHYl8dIp-5" value="" style="endArrow=classic;html=1;rounded=0;entryX=0.5;entryY=1;entryDx=0;entryDy=0;exitX=0.5;exitY=0;exitDx=0;exitDy=0;" edge="1" parent="1" source="H6aLL0KiJfkArdERg_eH-136" target="H6aLL0KiJfkArdERg_eH-137">
          <mxGeometry width="50" height="50" relative="1" as="geometry">
            <mxPoint x="1700" y="310" as="sourcePoint" />
            <mxPoint x="1750" y="260" as="targetPoint" />
            <Array as="points">
              <mxPoint x="1750" y="355" />
            </Array>
          </mxGeometry>
        </mxCell>
        <mxCell id="ujzUuT8ZMmnabHYl8dIp-6" value="" style="endArrow=classic;html=1;rounded=0;entryX=0;entryY=0.5;entryDx=0;entryDy=0;exitX=0.897;exitY=0.837;exitDx=0;exitDy=0;exitPerimeter=0;" edge="1" parent="1" source="H6aLL0KiJfkArdERg_eH-67" target="H6aLL0KiJfkArdERg_eH-110">
          <mxGeometry width="50" height="50" relative="1" as="geometry">
            <mxPoint x="870" y="560" as="sourcePoint" />
            <mxPoint x="920" y="510" as="targetPoint" />
          </mxGeometry>
        </mxCell>
      </root>
    </mxGraphModel>
  </diagram>
</mxfile>
